<svg width="24" height="24" viewBox="0 0 24 24" fill="none" xmlns="http://www.w3.org/2000/svg">
<path d="M20 8.89183C20 6.79909 19.1574 4.79204 17.6575 3.31209C16.1576 1.83214 14.1232 1.00047 12.0018 1C10.9511 0.999767 9.9106 1.20372 8.93978 1.60022C7.96897 1.99672 7.08684 2.57799 6.34378 3.31083C5.60072 4.04368 5.01129 4.91375 4.60914 5.87134C4.20699 6.82894 4 7.85531 4 8.89183C4 15.7343 11.9333 22.9431 11.9964 23C12.0577 22.9502 20 15.7343 20 8.89183Z" fill="#5D2FFF"/>
<path d="M12 14C14.7614 14 17 11.7614 17 9C17 6.23858 14.7614 4 12 4C9.23858 4 7 6.23858 7 9C7 11.7614 9.23858 14 12 14Z" fill="#F0F2F5"/>
</svg>
